STARTFONT 2.1
FONT -thai-dbthaitext-bold-r-normal--69-501-100-100-p-209-tis620-0
SIZE 50 100 100
FONTBOUNDINGBOX 91 79 -22 -28
STARTPROPERTIES 25
FOUNDRY "thai"
FAMILY_NAME "dbthaitext"
WEIGHT_NAME "bold"
SLANT "r"
SETWIDTH_NAME "normal"
ADD_STYLE_NAME ""
PIXEL_SIZE 69
POINT_SIZE 501
RESOLUTION_X 100
RESOLUTION_Y 100
SPACING "p"
AVERAGE_WIDTH 209
CHARSET_REGISTRY "tis620"
CHARSET_ENCODING "0"
FONT "-thai-dbthaitext-bold-r-normal--69-501-100-100-p-209-tis620-0"
COPYRIGHT "Typeface (c) The Monotype Corporation plc. Data (c) The Monotype Corporation plc/Type Solutions Inc. 1990-1992. All Rights Reserved"
RAW_PIXELSIZE 1000
RAW_POINTSIZE 723
RAW_ASCENT 738
RAW_DESCENT 408
RAW_AVERAGE_WIDTH 3023
FACE_NAME "DBThaiTextBoldne5"
DEFAULT_CHAR 0
FONT_ASCENT 51
FONT_DESCENT 28
ENDPROPERTIES
CHARS 190
STARTCHAR space
ENCODING 32
SWIDTH 244 0
DWIDTH 17 0
BBX 0 0 0 0
BITMAP
ENDCHAR
STARTCHAR exclam
ENCODING 33
SWIDTH 187 0
DWIDTH 13 0
BBX 6 29 4 0
BITMAP
fc
fc
fc
fc
fc
fc
fc
fc
fc
fc
fc
fc
f8
78
78
78
78
78
78
70
70
00
00
fc
fc
fc
fc
fc
fc
ENDCHAR
STARTCHAR quotedbl
ENCODING 34
SWIDTH 273 0
DWIDTH 19 0
BBX 14 11 2 18
BITMAP
f87c
f87c
f87c
f87c
f87c
f87c
f87c
7038
7038
7038
2010
ENDCHAR
STARTCHAR numbersign
ENCODING 35
SWIDTH 316 0
DWIDTH 22 0
BBX 22 29 0 -2
BITMAP
00f0f0
01f0f0
01f1f0
01e1f0
01e1e0
01e1e0
03e3e0
3ffffc
3ffffc
3ffffc
3ffffc
3ffffc
0783c0
0783c0
0787c0
0787c0
078780
fffff8
fffff8
fffff8
fffff8
fffff8
1f0f00
1f0f00
1e1f00
1e1f00
1e1e00
3e1e00
202000
ENDCHAR
STARTCHAR dollar
ENCODING 36
SWIDTH 316 0
DWIDTH 22 0
BBX 20 35 1 -5
BITMAP
00e000
00e000
03fc00
0fff00
1fff80
3fffc0
7eefc0
7ce7e0
7ce3e0
7ce3e0
7ce000
7ce000
7ee000
7fe000
3ff800
1ffe00
07ff80
01ffc0
00ffe0
00e7e0
00e3f0
00e3f0
f8e3f0
f8e3f0
fce3e0
7ce7e0
7fffe0
3fffc0
1fff80
0ffe00
01f000
00e000
00e000
00e000
00e000
ENDCHAR
STARTCHAR percent
ENCODING 37
SWIDTH 504 0
DWIDTH 35 0
BBX 33 29 1 -1
BITMAP
020001c000
1fc0018000
3ff0038000
7ff8070000
7878060000
f03c0e0000
f03c0c0000
f03c1c0000
f03c180000
f03c380000
7878700000
7ff8700000
3ff0e00000
1fe0c00000
0701c0e000
000183fc00
000387fe00
00030fff00
00070f0f00
000e1e0780
000e1e0780
001c1e0780
00181e0780
00381e0780
00300f1f00
00700fff00
00e007fe00
00e003f800
01c0000000
ENDCHAR
STARTCHAR ampersand
ENCODING 38
SWIDTH 403 0
DWIDTH 28 0
BBX 25 30 2 -1
BITMAP
00f80000
03fe0000
07ff0000
0fff8000
0fff8000
1f0f8000
1f078000
1f078000
1f878000
0fcf8000
0fff0000
07fe0000
03fc0000
07f80000
0ffc1e00
3ffc1e00
7f7e3e00
7e7f3c00
fc3ffc00
f81ffc00
f80ff800
f807f800
f807f000
fc07f800
7e0ffc00
7ffffc00
3ffffe00
1fff3f00
0ffc3f80
01f00000
ENDCHAR
STARTCHAR apostrophe
ENCODING 39
SWIDTH 129 0
DWIDTH 9 0
BBX 5 11 2 18
BITMAP
f8
f8
f8
f8
f8
f8
f8
70
70
70
20
ENDCHAR
STARTCHAR parenleft
ENCODING 40
SWIDTH 187 0
DWIDTH 13 0
BBX 10 37 2 -8
BITMAP
03c0
0780
0780
0f00
0f00
1e00
1e00
3e00
3c00
3c00
7c00
7800
7800
7800
f800
f800
f800
f800
f800
f800
f800
f800
f800
7800
7800
7c00
7c00
3c00
3c00
3e00
1e00
1e00
0f00
0f00
0780
0380
03c0
ENDCHAR
STARTCHAR parenright
ENCODING 41
SWIDTH 187 0
DWIDTH 13 0
BBX 10 37 1 -8
BITMAP
f000
7800
7800
3c00
3c00
1e00
1e00
1f00
0f00
0f00
0f80
0780
0780
07c0
07c0
03c0
03c0
03c0
03c0
03c0
03c0
03c0
07c0
07c0
0780
0f80
0f80
0f00
0f00
1f00
1e00
1e00
3c00
3c00
7800
7800
f000
ENDCHAR
STARTCHAR asterisk
ENCODING 42
SWIDTH 216 0
DWIDTH 15 0
BBX 13 14 1 15
BITMAP
0f00
0f00
0f00
0e00
6e70
fff8
fff8
1fc0
0f80
1fc0
3de0
79f0
38e0
1040
ENDCHAR
STARTCHAR plus
ENCODING 43
SWIDTH 331 0
DWIDTH 23 0
BBX 19 19 2 0
BITMAP
01e000
01e000
01e000
01e000
01e000
01e000
01e000
ffffe0
ffffe0
ffffe0
ffffe0
ffffe0
01e000
01e000
01e000
01e000
01e000
01e000
01e000
ENDCHAR
STARTCHAR comma
ENCODING 44
SWIDTH 201 0
DWIDTH 14 0
BBX 6 11 4 -4
BITMAP
10
78
fc
fc
fc
7c
1c
18
30
60
40
ENDCHAR
STARTCHAR minus
ENCODING 45
SWIDTH 187 0
DWIDTH 13 0
BBX 11 5 1 8
BITMAP
ffe0
ffe0
ffe0
ffe0
ffe0
ENDCHAR
STARTCHAR period
ENCODING 46
SWIDTH 144 0
DWIDTH 10 0
BBX 6 6 2 0
BITMAP
30
7c
fc
fc
fc
78
ENDCHAR
STARTCHAR slash
ENCODING 47
SWIDTH 158 0
DWIDTH 11 0
BBX 11 29 0 -1
BITMAP
00e0
00e0
00c0
01c0
01c0
0180
0180
0380
0300
0300
0700
0700
0600
0600
0e00
0c00
0c00
1c00
1800
1800
3800
3800
3000
3000
7000
6000
6000
e000
e000
ENDCHAR
STARTCHAR 0
ENCODING 48
SWIDTH 316 0
DWIDTH 22 0
BBX 20 30 1 -1
BITMAP
006000
07fe00
0fff00
1fff80
3fffc0
7fbfe0
7e07e0
7c07e0
7c07e0
fc03f0
f803f0
f803f0
f803f0
f803f0
f803f0
f803f0
f803f0
f803f0
f803f0
f803f0
fc03f0
7c07e0
7c07e0
7e07e0
7f0fe0
3fffc0
3fffc0
1fff80
0fff00
01f800
ENDCHAR
STARTCHAR 1
ENCODING 49
SWIDTH 316 0
DWIDTH 22 0
BBX 12 28 3 0
BITMAP
00f0
00f0
01f0
03f0
0ff0
fff0
fff0
fff0
fff0
03f0
03f0
03f0
03f0
03f0
03f0
03f0
03f0
03f0
03f0
03f0
03f0
03f0
03f0
03f0
03f0
03f0
03f0
03f0
ENDCHAR
STARTCHAR 2
ENCODING 50
SWIDTH 316 0
DWIDTH 22 0
BBX 19 29 1 0
BITMAP
00e000
07fc00
1fff00
3fff80
3fffc0
7f1fc0
7e07c0
7c07e0
7c07e0
fc07e0
fc07e0
0007e0
0007e0
000fc0
001f80
003f00
00fe00
01fc00
03f800
0ff000
1fc000
3f8000
3f0000
7e0000
7fffe0
7fffe0
ffffe0
ffffe0
ffffe0
ENDCHAR
STARTCHAR 3
ENCODING 51
SWIDTH 316 0
DWIDTH 22 0
BBX 19 30 1 -1
BITMAP
006000
07fc00
1fff00
3fff80
7fff80
7e0fc0
7c07c0
7c07c0
fc07c0
f807c0
0007c0
000f80
003f80
01ff00
01ff00
01ff80
01ffc0
000fc0
0007e0
0007e0
0003e0
f803e0
f807e0
fc07e0
7e0fc0
7fffc0
3fff80
1fff00
0ffe00
03f800
ENDCHAR
STARTCHAR 4
ENCODING 52
SWIDTH 316 0
DWIDTH 22 0
BBX 20 28 1 0
BITMAP
003f80
007f80
007f80
00ff80
00ff80
01ff80
03df80
03df80
079f80
079f80
0f1f80
1e1f80
1e1f80
3c1f80
381f80
781f80
f01f80
fffff0
fffff0
fffff0
fffff0
fffff0
001f80
001f80
001f80
001f80
001f80
001f80
ENDCHAR
STARTCHAR 5
ENCODING 53
SWIDTH 316 0
DWIDTH 22 0
BBX 20 29 1 -1
BITMAP
1fffe0
1fffe0
1fffe0
1fffe0
1fffe0
1e0000
3e0000
3c0000
3c0000
3cf800
3fff00
3fff80
7fffc0
7fffe0
7e0fe0
7c07f0
0003f0
0003f0
0003f0
0003f0
0003f0
fc07f0
fc07e0
fe0fe0
7fffc0
3fffc0
1fff80
0ffe00
03f000
ENDCHAR
STARTCHAR 6
ENCODING 54
SWIDTH 316 0
DWIDTH 22 0
BBX 19 29 1 -1
BITMAP
01fc00
07ff00
0fff80
1fffc0
3f0fc0
3e07c0
7c0000
7c0000
7c0000
7c0000
fcfe00
ffff00
ffff80
ffffc0
ff0fc0
fe07e0
fc03e0
fc03e0
fc03e0
7c03e0
7c03e0
7c03e0
7c07c0
3f0fc0
3fffc0
1fff80
0fff00
07fe00
01f000
ENDCHAR
STARTCHAR 7
ENCODING 55
SWIDTH 316 0
DWIDTH 22 0
BBX 20 28 1 0
BITMAP
fffff0
fffff0
fffff0
fffff0
fffff0
0003e0
0007c0
000fc0
001f80
001f00
003f00
007e00
007c00
00fc00
00f800
01f800
01f800
03f000
03f000
03e000
07e000
07e000
07e000
07c000
07c000
0fc000
0fc000
0fc000
ENDCHAR
STARTCHAR 8
ENCODING 56
SWIDTH 316 0
DWIDTH 22 0
BBX 20 29 1 -1
BITMAP
03f800
0ffe00
1fff80
3fff80
3e07c0
7c03e0
7c03e0
7c03e0
7c03e0
7c07c0
3e0fc0
1fff80
0fff00
1fff80
3fffc0
7f0fe0
7c07e0
fc07e0
fc03f0
fc03f0
fc03f0
fc07e0
fc07e0
7e0fe0
7fffc0
3fff80
1fff00
0ffe00
01f000
ENDCHAR
STARTCHAR 9
ENCODING 57
SWIDTH 316 0
DWIDTH 22 0
BBX 18 30 2 -1
BITMAP
03e000
0ff800
1ffe00
3ffe00
3fff00
7c1f80
780f80
f80f80
f007c0
f007c0
f007c0
f007c0
f00fc0
f80fc0
7c1fc0
7fffc0
3fffc0
3fffc0
1ff7c0
07c7c0
0007c0
000780
f80f80
f80f80
7c1f00
7e3f00
3ffe00
1ffc00
0ff800
07e000
ENDCHAR
STARTCHAR colon
ENCODING 58
SWIDTH 172 0
DWIDTH 12 0
BBX 6 22 3 0
BITMAP
78
fc
fc
fc
78
00
00
00
00
00
00
00
00
00
00
00
10
78
fc
fc
fc
78
ENDCHAR
STARTCHAR semicolon
ENCODING 59
SWIDTH 201 0
DWIDTH 14 0
BBX 6 25 4 -4
BITMAP
70
f8
f8
fc
f8
70
00
00
00
00
00
00
00
00
10
78
fc
fc
fc
7c
1c
18
30
60
40
ENDCHAR
STARTCHAR less
ENCODING 60
SWIDTH 331 0
DWIDTH 23 0
BBX 19 19 2 0
BITMAP
000020
0000e0
0007e0
001fe0
00ffe0
07ffe0
1fff00
fff800
ffc000
ff0000
ff0000
ffe000
7ffc00
1fff80
03ffe0
007fe0
001fe0
0003e0
000060
ENDCHAR
STARTCHAR equal
ENCODING 61
SWIDTH 331 0
DWIDTH 23 0
BBX 19 14 2 2
BITMAP
ffffe0
ffffe0
ffffe0
ffffe0
ffffe0
000000
000000
000000
000000
ffffe0
ffffe0
ffffe0
ffffe0
ffffe0
ENDCHAR
STARTCHAR greater
ENCODING 62
SWIDTH 331 0
DWIDTH 23 0
BBX 19 19 2 0
BITMAP
800000
e00000
fc0000
ff0000
ffe000
fffc00
1fff00
03ffe0
007fe0
001fe0
001fe0
00ffe0
07ffc0
3fff00
fff800
ffc000
ff0000
f80000
c00000
ENDCHAR
STARTCHAR question
ENCODING 63
SWIDTH 345 0
DWIDTH 24 0
BBX 19 29 3 0
BITMAP
0ff800
1ffe00
3fff00
7fff80
7fffc0
fe1fc0
fc0fe0
f807e0
f807e0
f807e0
0007e0
000fc0
001fc0
003f80
007f00
00fe00
01fc00
01f000
01f000
03e000
03e000
000000
000000
03f000
03f000
03f000
03f000
03f000
03f000
ENDCHAR
STARTCHAR at
ENCODING 64
SWIDTH 547 0
DWIDTH 38 0
BBX 36 34 1 -5
BITMAP
0001ff0000
000fffe000
003ffff800
00fc01fc00
01f0003e00
03e0000f00
07c0000780
0f800003c0
1f000001e0
1e00fcf1e0
3c03fee0f0
3c07cfe0f0
780f07e070
781e03e070
781c03c070
f03c03c070
f03803c070
f0780380f0
f0780380f0
f0780780e0
f0780781e0
f0780f83c0
f83c1f87c0
783e7fdf80
781ffbff00
3c0ff1fe00
3e03c07000
1f00000000
0f80000000
07e0004000
03fc01e000
00ffffe000
003fffe000
0007fe0000
ENDCHAR
STARTCHAR A
ENCODING 65
SWIDTH 403 0
DWIDTH 28 0
BBX 27 29 1 0
BITMAP
003f8000
007fc000
007fc000
007fc000
00ffe000
00ffe000
00ffe000
01fff000
01fbf000
01f9f000
03f9f800
03f1f800
03f1f800
07f0fc00
07e0fc00
07e0fc00
0fc07e00
0fc07e00
0ffffe00
1fffff00
1fffff00
1fffff00
3fffff80
3f001f80
3f001f80
7e000fc0
7e000fc0
7e000fc0
fc000fe0
ENDCHAR
STARTCHAR B
ENCODING 66
SWIDTH 403 0
DWIDTH 28 0
BBX 23 29 3 0
BITMAP
ffff00
ffffe0
fffff0
fffff8
fffffc
fc01fc
fc00fc
fc007c
fc007c
fc007c
fc00fc
fc01f8
fffff8
fffff0
fffff0
fffff8
fffffc
fc00fe
fc007e
fc007e
fc007e
fc007e
fc007e
fc00fe
fffffc
fffffc
fffff8
fffff0
ffff80
ENDCHAR
STARTCHAR C
ENCODING 67
SWIDTH 403 0
DWIDTH 28 0
BBX 25 31 2 -1
BITMAP
007f0000
01ffc000
07fff000
0ffff800
0ffffc00
1ffffe00
3fc0ff00
3f003f00
7e001f80
7e001f80
7c001f80
fc000000
fc000000
fc000000
fc000000
f8000000
f8000000
fc000000
fc000000
fc000000
fc001f80
7c001f80
7e001f80
7f003f00
3f807f00
3fe1fe00
1ffffe00
0ffffc00
07fff800
01ffe000
007f0000
ENDCHAR
STARTCHAR D
ENCODING 68
SWIDTH 403 0
DWIDTH 28 0
BBX 24 29 3 0
BITMAP
ffff00
ffffc0
fffff0
fffff8
fffff8
fc03fc
fc01fe
fc00fe
fc007e
fc007f
fc003f
fc003f
fc003f
fc003f
fc003f
fc003f
fc003f
fc003f
fc007e
fc007e
fc007e
fc00fe
fc01fc
fc03fc
fffff8
fffff0
ffffe0
ffffc0
ffff00
ENDCHAR
STARTCHAR E
ENCODING 69
SWIDTH 374 0
DWIDTH 26 0
BBX 22 29 3 0
BITMAP
fffff8
fffff8
fffff8
fffff8
fffff8
fc0000
fc0000
fc0000
fc0000
fc0000
fc0000
fc0000
fffff0
fffff0
fffff0
fffff0
fffff0
fc0000
fc0000
fc0000
fc0000
fc0000
fc0000
fc0000
fffffc
fffffc
fffffc
fffffc
fffffc
ENDCHAR
STARTCHAR F
ENCODING 70
SWIDTH 345 0
DWIDTH 24 0
BBX 20 29 3 0
BITMAP
fffff0
fffff0
fffff0
fffff0
fffff0
fc0000
fc0000
fc0000
fc0000
fc0000
fc0000
fc0000
ffffc0
ffffc0
ffffc0
ffffc0
ffffc0
fc0000
fc0000
fc0000
fc0000
fc0000
fc0000
fc0000
fc0000
fc0000
fc0000
fc0000
fc0000
ENDCHAR
STARTCHAR G
ENCODING 71
SWIDTH 446 0
DWIDTH 31 0
BBX 26 31 2 -1
BITMAP
007fc000
01fff800
03fffc00
07fffe00
0fffff00
1ff0ff00
1fc03f80
3f001f80
3e000fc0
7e0007c0
7c000000
7c000000
fc000000
fc000000
fc000000
fc01ffc0
fc01ffc0
fc01ffc0
fc01ffc0
fc01ffc0
7c0007c0
7e0007c0
7e0007c0
3f000fc0
3f801fc0
1fe07fc0
0fffffc0
07fffbc0
03fff3c0
01ffe1c0
003f0000
ENDCHAR
STARTCHAR H
ENCODING 72
SWIDTH 403 0
DWIDTH 28 0
BBX 23 29 3 0
BITMAP
fc007e
fc007e
fc007e
fc007e
fc007e
fc007e
fc007e
fc007e
fc007e
fc007e
fc007e
fffffe
fffffe
fffffe
fffffe
fffffe
fc007e
fc007e
fc007e
fc007e
fc007e
fc007e
fc007e
fc007e
fc007e
fc007e
fc007e
fc007e
fc007e
ENDCHAR
STARTCHAR I
ENCODING 73
SWIDTH 158 0
DWIDTH 11 0
BBX 6 29 2 0
BITMAP
fc
fc
fc
fc
fc
fc
fc
fc
fc
fc
fc
fc
fc
fc
fc
fc
fc
fc
fc
fc
fc
fc
fc
fc
fc
fc
fc
fc
fc
ENDCHAR
STARTCHAR J
ENCODING 74
SWIDTH 316 0
DWIDTH 22 0
BBX 18 30 1 -1
BITMAP
000fc0
000fc0
000fc0
000fc0
000fc0
000fc0
000fc0
000fc0
000fc0
000fc0
000fc0
000fc0
000fc0
000fc0
000fc0
000fc0
000fc0
000fc0
fc0fc0
fc0fc0
fc0fc0
fc0fc0
fc0fc0
fc0fc0
fe1fc0
7fff80
7fff80
3fff00
1ffc00
03f000
ENDCHAR
STARTCHAR K
ENCODING 75
SWIDTH 403 0
DWIDTH 28 0
BBX 25 29 3 0
BITMAP
fc007e00
fc00fc00
fc01fc00
fc03f800
fc07f000
fc0fe000
fc1fc000
fc1f8000
fc3f0000
fc7f0000
fcfe0000
fdfc0000
fff80000
fff80000
fffc0000
fffe0000
ffff0000
ff3f0000
fe3f8000
fc1fc000
fc0fe000
fc07e000
fc07f000
fc03f800
fc01fc00
fc00fe00
fc00fe00
fc007f00
fc003f80
ENDCHAR
STARTCHAR L
ENCODING 76
SWIDTH 345 0
DWIDTH 24 0
BBX 20 29 3 0
BITMAP
fc0000
fc0000
fc0000
fc0000
fc0000
fc0000
fc0000
fc0000
fc0000
fc0000
fc0000
fc0000
fc0000
fc0000
fc0000
fc0000
fc0000
fc0000
fc0000
fc0000
fc0000
fc0000
fc0000
fc0000
fffff0
fffff0
fffff0
fffff0
fffff0
ENDCHAR
STARTCHAR M
ENCODING 77
SWIDTH 475 0
DWIDTH 33 0
BBX 28 29 3 0
BITMAP
ff001ff0
ff801ff0
ff803ff0
ff803ff0
ff803ff0
ffc03ff0
ffc07ff0
ffc07ff0
fdc07bf0
fde07bf0
fde0fbf0
fde0fbf0
fde0f3f0
fce0f3f0
fcf1f3f0
fcf1f3f0
fcf1e3f0
fcf1e3f0
fc79e3f0
fc7be3f0
fc7be3f0
fc7bc3f0
fc7fc3f0
fc3fc3f0
fc3fc3f0
fc3f83f0
fc3f83f0
fc3f83f0
fc1f83f0
ENDCHAR
STARTCHAR N
ENCODING 78
SWIDTH 403 0
DWIDTH 28 0
BBX 23 29 3 0
BITMAP
fc007e
fe007e
fe007e
ff007e
ff007e
ff807e
ffc07e
ffc07e
ffe07e
ffe07e
fdf07e
fdf07e
fcf87e
fcf87e
fc7c7e
fc3e7e
fc3e7e
fc1f7e
fc1f7e
fc0ffe
fc0ffe
fc07fe
fc07fe
fc03fe
fc01fe
fc01fe
fc00fe
fc00fe
fc007e
ENDCHAR
STARTCHAR O
ENCODING 79
SWIDTH 446 0
DWIDTH 31 0
BBX 28 31 1 -1
BITMAP
003fc000
01fff800
03fffe00
0fffff00
0fffff00
1ff0ff80
3fe03fc0
3fc01fc0
3f800fc0
7f0007e0
7e0003e0
7e0003e0
fe0003f0
fc0003f0
fc0003f0
fc0003f0
fc0003f0
fc0003f0
fc0003f0
fe0003f0
7e0003e0
7e0007e0
7f0007e0
3f800fc0
3fc01fc0
1ff07f80
0fffff00
0fffff00
03fffc00
01fff800
001fc000
ENDCHAR
STARTCHAR P
ENCODING 80
SWIDTH 374 0
DWIDTH 26 0
BBX 22 29 3 0
BITMAP
ffff80
ffffe0
fffff0
fffff8
fffff8
fc03f8
fc00fc
fc00fc
fc00fc
fc00fc
fc00fc
fc00fc
fc01fc
fc03f8
fffff8
fffff0
ffffe0
ffffc0
ffff00
fc0000
fc0000
fc0000
fc0000
fc0000
fc0000
fc0000
fc0000
fc0000
fc0000
ENDCHAR
STARTCHAR Q
ENCODING 81
SWIDTH 446 0
DWIDTH 31 0
BBX 28 32 2 -2
BITMAP
007fc000
01fff000
07fffc00
0fffff00
0fffff00
1ff0ff80
3fc07fc0
3f803fc0
3f001fc0
7e000fe0
7c0007e0
7c0007e0
fc0007f0
fc0003f0
fc0003f0
fc0003f0
fc0003f0
fc0003f0
fc0003f0
fc0087f0
7c01c7e0
7e01ffe0
7e03ffe0
3f01ffc0
3f80ffc0
1fe0ff80
0fffff80
0fffffc0
03ffffe0
01fff3e0
003f81c0
00000080
ENDCHAR
STARTCHAR R
ENCODING 82
SWIDTH 403 0
DWIDTH 28 0
BBX 24 29 3 0
BITMAP
ffffc0
fffff0
fffff8
fffffc
fffffe
fc00fe
fc007e
fc007e
fc007e
fc007e
fc007e
fc00fe
fc01fc
fffff8
fffff0
ffffe0
fffff0
fffff8
fc00fc
fc00fc
fc00fc
fc00fc
fc00fc
fc00fc
fc00fc
fc00fe
fc00fe
fc00fe
fc007f
ENDCHAR
STARTCHAR S
ENCODING 83
SWIDTH 374 0
DWIDTH 26 0
BBX 24 31 1 -1
BITMAP
01ff00
07ffe0
1ffff0
3ffff8
3ffffc
7f87fc
7e01fe
7e00fe
7c007e
7c007e
7e0000
7f0000
7fe000
3fff00
3fffe0
1ffff8
07fffc
007ffe
0003ff
00007f
00007f
fc003f
fc003f
fe003f
7e007e
7f80fe
3ffffe
3ffffc
0ffff8
07ffe0
00ff00
ENDCHAR
STARTCHAR T
ENCODING 84
SWIDTH 345 0
DWIDTH 24 0
BBX 23 29 1 0
BITMAP
fffffe
fffffe
fffffe
fffffe
fffffe
00fc00
00fc00
00fc00
00fc00
00fc00
00fc00
00fc00
00fc00
00fc00
00fc00
00fc00
00fc00
00fc00
00fc00
00fc00
00fc00
00fc00
00fc00
00fc00
00fc00
00fc00
00fc00
00fc00
00fc00
ENDCHAR
STARTCHAR U
ENCODING 85
SWIDTH 403 0
DWIDTH 28 0
BBX 23 30 3 -1
BITMAP
fc007e
fc007e
fc007e
fc007e
fc007e
fc007e
fc007e
fc007e
fc007e
fc007e
fc007e
fc007e
fc007e
fc007e
fc007e
fc007e
fc007e
fc007e
fc007e
fc007e
fc007e
fc007e
fe00fe
7e00fc
7f83fc
3ffff8
1ffff8
0ffff0
07ffc0
00fe00
ENDCHAR
STARTCHAR V
ENCODING 86
SWIDTH 374 0
DWIDTH 26 0
BBX 25 29 1 0
BITMAP
fe001f80
7e001f00
7e003f00
7e003f00
3f003e00
3f007e00
3f007e00
1f007c00
1f80fc00
1f80fc00
0f80f800
0f81f800
0fc1f800
07c1f000
07c1f000
07e3f000
03e3e000
03e3e000
03e7e000
01f7c000
01f7c000
01ffc000
00ff8000
00ff8000
00ff8000
007f0000
007f0000
007f0000
003e0000
ENDCHAR
STARTCHAR W
ENCODING 87
SWIDTH 532 0
DWIDTH 37 0
BBX 36 29 1 0
BITMAP
fc01f803f0
fc01f807e0
7e01fc07e0
7e03fc07e0
7e03fc07e0
3e03fc07c0
3e03fc07c0
3f03fe0fc0
3f07fe0fc0
1f07be0f80
1f079e0f80
1f879e0f80
1f879f1f00
0f8f9f1f00
0f8f0f1f00
0f8f0f1f00
07cf0f1e00
07cf0fbe00
07df0fbe00
07de07be00
03de07bc00
03fe07bc00
03fe07fc00
01fc03f800
01fc03f800
01fc03f800
01fc03f800
00fc01f000
00f801f000
ENDCHAR
STARTCHAR X
ENCODING 88
SWIDTH 374 0
DWIDTH 26 0
BBX 25 29 1 0
BITMAP
7f003f00
7f007f00
3f80fe00
1f80fc00
1fc1fc00
0fc1f800
0fe3f800
07e3f000
07f7e000
03ffe000
01ffc000
01ffc000
00ff8000
00ff0000
007f0000
00ff8000
00ff8000
01ffc000
01ffe000
03f7e000
07f7f000
07e3f000
0fe3f800
0fc1fc00
1fc1fc00
3f80fe00
3f007e00
7f007f00
7e003f80
ENDCHAR
STARTCHAR Y
ENCODING 89
SWIDTH 374 0
DWIDTH 26 0
BBX 25 29 1 0
BITMAP
fe003f00
7e007f00
7f007e00
3f00fe00
3f80fc00
1f81fc00
1f81f800
0fc3f800
0fc3f000
07e7f000
07e7e000
03e7e000
03ffc000
01ff8000
01ff8000
00ff0000
00ff0000
007e0000
007e0000
007e0000
007e0000
007e0000
007e0000
007e0000
007e0000
007e0000
007e0000
007e0000
007e0000
ENDCHAR
STARTCHAR Z
ENCODING 90
SWIDTH 345 0
DWIDTH 24 0
BBX 22 29 1 0
BITMAP
fffffc
fffffc
fffffc
fffffc
fffffc
0003fc
0003f8
0007f0
000fe0
001fc0
001fc0
003f80
007f00
00fe00
01fc00
01fc00
03f800
07f000
0fe000
0fc000
1fc000
3f8000
7f0000
fe0000
fffffc
fffffc
fffffc
fffffc
fffffc
ENDCHAR
STARTCHAR bracketleft
ENCODING 91
SWIDTH 187 0
DWIDTH 13 0
BBX 9 36 3 -7
BITMAP
ff80
ff80
ff80
f800
f800
f800
f800
f800
f800
f800
f800
f800
f800
f800
f800
f800
f800
f800
f800
f800
f800
f800
f800
f800
f800
f800
f800
f800
f800
f800
f800
f800
f800
ff80
ff80
ff80
ENDCHAR
STARTCHAR backslash
ENCODING 92
SWIDTH 158 0
DWIDTH 11 0
BBX 12 29 -1 -1
BITMAP
e000
f000
7000
7000
7000
3800
3800
3800
1c00
1c00
1c00
0e00
0e00
0e00
0f00
0700
0700
0780
0380
0380
0380
01c0
01c0
01c0
00e0
00e0
00e0
0070
0070
ENDCHAR
STARTCHAR bracketright
ENCODING 93
SWIDTH 187 0
DWIDTH 13 0
BBX 9 36 1 -7
BITMAP
ff80
ff80
ff80
0f80
0f80
0f80
0f80
0f80
0f80
0f80
0f80
0f80
0f80
0f80
0f80
0f80
0f80
0f80
0f80
0f80
0f80
0f80
0f80
0f80
0f80
0f80
0f80
0f80
0f80
0f80
0f80
0f80
0f80
ff80
ff80
ff80
ENDCHAR
STARTCHAR asciicircum
ENCODING 94
SWIDTH 331 0
DWIDTH 23 0
BBX 18 16 2 11
BITMAP
03f000
03f000
07f000
07f800
07f800
0ffc00
0f3c00
1f3c00
1e1e00
1e1e00
3e1f00
3c0f00
3c0f00
7c0780
780780
f807c0
ENDCHAR
STARTCHAR underscore
ENCODING 95
SWIDTH 316 0
DWIDTH 22 0
BBX 24 3 -1 -8
BITMAP
ffffff
ffffff
ffffff
ENDCHAR
STARTCHAR grave
ENCODING 96
SWIDTH 172 0
DWIDTH 12 0
BBX 12 12 0 6
BITMAP
0700
3fc0
7fe0
7fe0
fff0
fff0
fff0
fff0
fff0
7fe0
3fc0
1f80
ENDCHAR
STARTCHAR a
ENCODING 97
SWIDTH 316 0
DWIDTH 22 0
BBX 20 23 1 -1
BITMAP
03fc00
1fff00
3fffc0
3fffc0
7e07e0
7c07e0
7c07e0
0007e0
000fe0
00ffe0
1fffe0
3fffe0
7ff3e0
7e03e0
fc07e0
fc07e0
fc0fe0
fe1fe0
ffffe0
7fffe0
7ffbe0
3fe3f0
0f8000
ENDCHAR
STARTCHAR b
ENCODING 98
SWIDTH 345 0
DWIDTH 24 0
BBX 20 30 3 -1
BITMAP
f80000
f80000
f80000
f80000
f80000
f80000
f80000
f87800
f9fe00
fbff80
fbffc0
ffffc0
ff1fe0
fe0fe0
fc07e0
f803f0
f803f0
f803f0
f803f0
f803f0
f803f0
f803f0
fc07e0
fc07e0
fe0fe0
ffffc0
ffffc0
fbff80
f9ff00
00f800
ENDCHAR
STARTCHAR c
ENCODING 99
SWIDTH 316 0
DWIDTH 22 0
BBX 19 23 1 -1
BITMAP
03fc00
0fff00
1fff80
1fff80
3fffc0
7f0fc0
7e07e0
7c03e0
fc03e0
fc0000
fc0000
f80000
f80000
fc0000
fc0000
fc03e0
7c07e0
7e07c0
3fffc0
3fff80
1fff00
0ffe00
03f800
ENDCHAR
STARTCHAR d
ENCODING 100
SWIDTH 345 0
DWIDTH 24 0
BBX 21 30 1 -1
BITMAP
0001f8
0001f8
0001f8
0001f8
0001f8
0001f8
0001f8
03f1f8
0ff9f8
1ffdf8
3ffff8
3ffff8
7f0ff8
7e07f8
7e03f8
fc03f8
fc01f8
fc01f8
fc01f8
fc01f8
fc01f8
7c01f8
7c03f8
7e03f8
3f07f8
3ffff8
1ffff8
1ffff8
0ff9f8
03e100
ENDCHAR
STARTCHAR e
ENCODING 101
SWIDTH 316 0
DWIDTH 22 0
BBX 20 23 1 -1
BITMAP
03f800
0fff00
1fff80
3fffc0
3fffc0
7f0fe0
7e07e0
7c03e0
fc03f0
fc03f0
fffff0
fffff0
fffff0
fc0000
fc0000
fc0000
7e03f0
7f07e0
3fffe0
3fffc0
1fff80
07fe00
01f800
ENDCHAR
STARTCHAR f
ENCODING 102
SWIDTH 187 0
DWIDTH 13 0
BBX 11 29 1 0
BITMAP
07e0
1fe0
1fe0
3fe0
3f80
3f00
3f00
3f00
ffe0
ffe0
ffe0
3f00
3f00
3f00
3f00
3f00
3f00
3f00
3f00
3f00
3f00
3f00
3f00
3f00
3f00
3f00
3f00
3f00
3f00
ENDCHAR
STARTCHAR g
ENCODING 103
SWIDTH 345 0
DWIDTH 24 0
BBX 20 31 1 -9
BITMAP
01f1f0
07f9f0
0ffdf0
1ffff0
3ffff0
3f8ff0
7e07f0
7c03f0
7c01f0
7c01f0
f801f0
f801f0
f801f0
f801f0
7c01f0
7c03f0
7e03f0
7e07f0
3f8ff0
3ffff0
1ffff0
0ffdf0
03f1f0
0001f0
0001f0
7e03f0
7e07e0
3fffc0
3fffc0
0fff00
03fc00
ENDCHAR
STARTCHAR h
ENCODING 104
SWIDTH 345 0
DWIDTH 24 0
BBX 20 29 2 0
BITMAP
fc0000
fc0000
f80000
f80000
f80000
f80000
f80000
f83c00
f9ff80
fbffe0
ffffe0
fffff0
ff8ff0
fe07f0
fe03f0
fc03f0
fc03f0
fc03f0
fc03f0
fc03f0
fc03f0
fc03f0
fc03f0
fc03f0
fc03f0
fc03f0
fc03f0
fc03f0
fc03f0
ENDCHAR
STARTCHAR i
ENCODING 105
SWIDTH 158 0
DWIDTH 11 0
BBX 6 29 2 0
BITMAP
fc
fc
fc
fc
fc
00
00
00
fc
fc
fc
fc
fc
fc
fc
fc
fc
fc
fc
fc
fc
fc
fc
fc
fc
fc
fc
fc
fc
ENDCHAR
STARTCHAR j
ENCODING 106
SWIDTH 158 0
DWIDTH 11 0
BBX 8 38 0 -9
BITMAP
1f
1f
1f
1f
1f
00
00
00
1f
1f
1f
1f
1f
1f
1f
1f
1f
1f
1f
1f
1f
1f
1f
1f
1f
1f
1f
1f
1f
1f
1f
1f
1f
ff
ff
fe
fe
f8
ENDCHAR
STARTCHAR k
ENCODING 107
SWIDTH 316 0
DWIDTH 22 0
BBX 19 29 3 0
BITMAP
f80000
f80000
f80000
f80000
f80000
f80000
f80000
f80000
f81f80
f83f00
f83f00
f87e00
f8fc00
f9f800
f9f000
fbe000
ffe000
fff000
fff800
fff800
fffc00
fcfc00
f87e00
f87e00
f83f00
f83f80
f81f80
f81fc0
f80fc0
ENDCHAR
STARTCHAR l
ENCODING 108
SWIDTH 158 0
DWIDTH 11 0
BBX 6 29 2 0
BITMAP
fc
fc
fc
fc
fc
fc
fc
fc
fc
fc
fc
fc
fc
fc
fc
fc
fc
fc
fc
fc
fc
fc
fc
fc
fc
fc
fc
fc
fc
ENDCHAR
STARTCHAR m
ENCODING 109
SWIDTH 504 0
DWIDTH 35 0
BBX 30 22 3 0
BITMAP
f8780fc0
f9fe3ff0
fbff7ff8
fbfffff8
fffffffc
fe3fe1fc
fc0fc0fc
f80f80fc
f80f80fc
f80f80fc
f80f80fc
f80f80fc
f80f80fc
f80f80fc
f80f80fc
f80f80fc
f80f80fc
f80f80fc
f80f80fc
f80f80fc
f80f80fc
f80f80fc
ENDCHAR
STARTCHAR n
ENCODING 110
SWIDTH 345 0
DWIDTH 24 0
BBX 19 22 3 0
BITMAP
f8fc00
f9ff00
fbff80
fbffc0
ffffc0
fe0fe0
fc07e0
f807e0
f807e0
f807e0
f807e0
f807e0
f807e0
f807e0
f807e0
f807e0
f807e0
f807e0
f807e0
f807e0
f807e0
f807e0
ENDCHAR
STARTCHAR o
ENCODING 111
SWIDTH 345 0
DWIDTH 24 0
BBX 21 23 1 -1
BITMAP
01fe00
07ff80
1fffc0
3fffe0
3ffff0
7f87f0
7f03f8
7e01f8
fc01f8
fc00f8
fc00f8
fc00f8
fc00f8
fc00f8
fc01f8
7e01f8
7f03f8
7f87f0
3ffff0
3fffe0
1fffc0
07ff80
01fc00
ENDCHAR
STARTCHAR p
ENCODING 112
SWIDTH 345 0
DWIDTH 24 0
BBX 20 31 3 -9
BITMAP
f8f800
f9fe00
fbff00
ffff80
ffffc0
ff1fc0
fc0fe0
fc07e0
f807e0
f803e0
f803e0
f803f0
f803f0
f803e0
f803e0
fc07e0
fc07e0
fe0fe0
ffffc0
ffffc0
fbff80
fbff00
f8fc00
f80000
f80000
f80000
f80000
f80000
f80000
f80000
f80000
ENDCHAR
STARTCHAR q
ENCODING 113
SWIDTH 345 0
DWIDTH 24 0
BBX 20 31 1 -9
BITMAP
03f1f0
0ff9f0
1ffdf0
3ffff0
3ffff0
7f8ff0
7e07f0
7e03f0
fc03f0
fc01f0
fc01f0
fc01f0
fc01f0
fc01f0
fc01f0
fc03f0
7e03f0
7f07f0
7f9ff0
3ffff0
1ffdf0
0ff9f0
03e1f0
0001f0
0001f0
0001f0
0001f0
0001f0
0001f0
0001f0
0001f0
ENDCHAR
STARTCHAR r
ENCODING 114
SWIDTH 216 0
DWIDTH 15 0
BBX 12 22 3 0
BITMAP
f870
f9f0
fbf0
fbf0
fbf0
fff0
fe00
fc00
f800
f800
f800
f800
f800
f800
f800
f800
f800
f800
f800
f800
f800
f800
ENDCHAR
STARTCHAR s
ENCODING 115
SWIDTH 316 0
DWIDTH 22 0
BBX 19 23 1 -1
BITMAP
03f000
0ffe00
1fff00
3fff80
7fbfc0
7c07c0
7c07c0
7c07c0
7f8000
7ff800
3fff00
1fff80
07ffc0
00ffe0
001fe0
0007e0
f803e0
fc07e0
7f0fc0
7fffc0
3fff80
0fff00
03f800
ENDCHAR
STARTCHAR t
ENCODING 116
SWIDTH 187 0
DWIDTH 13 0
BBX 11 28 1 -1
BITMAP
3f00
3f00
3f00
3f00
3f00
3f00
ffe0
ffe0
ffe0
3f00
3f00
3f00
3f00
3f00
3f00
3f00
3f00
3f00
3f00
3f00
3f00
3f00
3f00
3f80
3fe0
1fe0
1fe0
07c0
ENDCHAR
STARTCHAR u
ENCODING 117
SWIDTH 345 0
DWIDTH 24 0
BBX 19 22 3 -1
BITMAP
f807e0
f807e0
f807e0
f807e0
f807e0
f807e0
f807e0
f807e0
f807e0
f807e0
f807e0
f807e0
f807e0
f807e0
f807e0
f80fe0
fc1fe0
ffffe0
7fffe0
3ff7e0
1fe7e0
078000
ENDCHAR
STARTCHAR v
ENCODING 118
SWIDTH 316 0
DWIDTH 22 0
BBX 21 21 0 0
BITMAP
fc01f8
7e01f0
7e03f0
7e03f0
3e03e0
3f07e0
3f07e0
1f07c0
1f0fc0
1f8fc0
0f8f80
0f9f80
0fdf80
07df00
07df00
07fe00
03fe00
03fe00
03fc00
01fc00
01fc00
ENDCHAR
STARTCHAR w
ENCODING 119
SWIDTH 446 0
DWIDTH 31 0
BBX 30 21 0 0
BITMAP
fc0fc0fc
fc0fc0f8
7c0fc0f8
7c1fe1f8
7e1fe1f8
3e1fe1f0
3e1fe1f0
3e1fe1f0
3f3cf3f0
1f3cf3e0
1f3cf3e0
1f3cf3e0
0ffcf7c0
0ff87fc0
0ff87fc0
0ff87fc0
07f87f80
07f03f80
07f03f80
03f03f00
03f03f00
ENDCHAR
STARTCHAR x
ENCODING 120
SWIDTH 316 0
DWIDTH 22 0
BBX 20 21 1 0
BITMAP
7e07e0
7e07e0
3f0fc0
1f8f80
1f9f80
0fdf00
0ffe00
07fe00
03fc00
03fc00
01f800
03fc00
03fc00
07fe00
0fff00
0fbf00
1f9f80
3f0fc0
3f0fc0
7e07e0
7e03f0
ENDCHAR
STARTCHAR y
ENCODING 121
SWIDTH 316 0
DWIDTH 22 0
BBX 21 30 0 -9
BITMAP
fc01f8
7e01f0
7e01f0
7e03f0
3f03e0
3f03e0
3f07e0
1f07c0
1f87c0
1f8fc0
0f8f80
0fcf80
0fcf00
07df00
07ff00
03fe00
03fe00
03fe00
01fc00
01fc00
01fc00
00f800
00f800
01f800
03f000
1ff000
1fe000
1fe000
1fc000
1f0000
ENDCHAR
STARTCHAR z
ENCODING 122
SWIDTH 288 0
DWIDTH 20 0
BBX 17 21 1 0
BITMAP
ffff80
ffff80
ffff80
ffff80
ffff80
003f80
007f00
00fe00
01fc00
03f800
07f000
0fe000
1fc000
3f8000
7f0000
fe0000
ffff80
ffff80
ffff80
ffff80
ffff80
ENDCHAR
STARTCHAR braceleft
ENCODING 123
SWIDTH 216 0
DWIDTH 15 0
BBX 11 37 1 -8
BITMAP
01e0
03e0
07e0
0fe0
0f80
0f00
0f00
0f00
0f00
0f00
0f00
0f00
0f00
0f00
0f00
0f00
3e00
fe00
f000
fe00
3f00
0f00
0f00
0f00
0f00
0f00
0f00
0f00
0f00
0f00
0f00
0f00
0f80
0fe0
07e0
03e0
01e0
ENDCHAR
STARTCHAR bar
ENCODING 124
SWIDTH 158 0
DWIDTH 11 0
BBX 4 37 4 -8
BITMAP
f0
f0
f0
f0
f0
f0
f0
f0
f0
f0
f0
f0
f0
f0
f0
f0
f0
f0
f0
f0
f0
f0
f0
f0
f0
f0
f0
f0
f0
f0
f0
f0
f0
f0
f0
f0
f0
ENDCHAR
STARTCHAR braceright
ENCODING 125
SWIDTH 216 0
DWIDTH 15 0
BBX 11 37 3 -8
BITMAP
f000
f800
fc00
fe00
1e00
1e00
1e00
1e00
1e00
1e00
1e00
1e00
1e00
1e00
1e00
1e00
1f80
0fe0
03e0
0fe0
0f80
1f00
1e00
1e00
1e00
1e00
1e00
1e00
1e00
1e00
1e00
1e00
1e00
fe00
fc00
f800
f000
ENDCHAR
STARTCHAR asciitilde
ENCODING 126
SWIDTH 331 0
DWIDTH 23 0
BBX 18 7 2 6
BITMAP
0c0000
3f0000
7fc1c0
7ff3c0
e1ff80
e07f80
001f00
ENDCHAR
STARTCHAR exclamdown
ENCODING 161
SWIDTH 374 0
DWIDTH 26 0
BBX 20 24 2 0
BITMAP
01fe00
0fff80
1fffc0
7e07e0
f801e0
fe00f0
ff80f0
0f80f0
1f80f0
3e00f0
3c00f0
3c00f0
3c00f0
3c00f0
3c00f0
3c00f0
3c00f0
3c00f0
3c00f0
3c00f0
3c00f0
3c00f0
3c00f0
3c00f0
ENDCHAR
STARTCHAR cent
ENCODING 162
SWIDTH 360 0
DWIDTH 25 0
BBX 21 24 1 0
BITMAP
0fc000
3ff078
7ff878
ff7c78
ffbc78
e39c78
e39e78
e39c78
ffbc78
7f3c78
3e7878
00f078
00f078
00f078
00f078
00f078
00f078
00f078
00f078
00f078
00f0f8
07fff8
07fff0
07ffe0
ENDCHAR
STARTCHAR sterling
ENCODING 163
SWIDTH 403 0
DWIDTH 28 0
BBX 23 24 1 0
BITMAP
0f1c1e
1ffe1e
3fff1e
71e79e
f0039e
ff079e
ff8f1e
fbdf1e
f1de1e
f1de1e
f3de1e
7f9e1e
3f9e1e
0e1e1e
001e1e
001e1e
001e1e
001e1e
001e1e
001e1e
001e1e
00fffe
00fffc
00fff8
ENDCHAR
STARTCHAR currency
ENCODING 164
SWIDTH 360 0
DWIDTH 25 0
BBX 20 24 2 0
BITMAP
01fc00
0fff00
3fffc0
7e07e0
7803e0
f001f0
f1f0f0
e3f8f0
e3fcf0
e71cf0
f71cf0
f71cf0
7ffcf0
7ff8f0
3ff0f0
3f00f0
1f00f0
1f00f0
0f00f0
0f00f0
0f00f0
0f00f0
0f00f0
0f00f0
ENDCHAR
STARTCHAR yen
ENCODING 165
SWIDTH 360 0
DWIDTH 25 0
BBX 20 24 2 0
BITMAP
030600
0fff80
3fffc0
7effe0
7821e0
f000f0
f1f0f0
e3f8f0
e3fcf0
e71cf0
f71cf0
f71cf0
7ffcf0
7ff8f0
3ff0f0
3f00f0
1f00f0
1f00f0
0f00f0
0f00f0
0f00f0
0f00f0
0f00f0
0f00f0
ENDCHAR
STARTCHAR brokenbar
ENCODING 166
SWIDTH 460 0
DWIDTH 32 0
BBX 27 24 1 0
BITMAP
061c01e0
1ffe01e0
3fff01e0
79f781e0
704381e0
ff0781e0
ff8f81e0
ffdf01e0
f1de01e0
f1de01e0
71de01e0
7fde01e0
3f9e01e0
1e7f81e0
00ffe1e0
01fff9e0
03dffde0
039e3fe0
039e0fe0
039e07e0
039e03e0
03fe03e0
01fc01e0
00fc01e0
ENDCHAR
STARTCHAR section
ENCODING 167
SWIDTH 288 0
DWIDTH 20 0
BBX 16 25 1 -1
BITMAP
0078
00fe
01ff
01c7
0387
03c7
01ff
21ff
70ff
f00f
f80f
780f
3c0f
3e0f
1e0f
1f0f
0f0f
078f
07cf
03cf
03ef
01ff
00ff
00fe
0038
ENDCHAR
STARTCHAR diaeresis
ENCODING 168
SWIDTH 345 0
DWIDTH 24 0
BBX 20 24 1 0
BITMAP
01fc00
0fff80
1fffc0
3f0fe0
7c03e0
7001f0
2000f0
0000f0
0fc0f0
1fe0f0
1ff0f0
1c70f0
1870f0
1c78f0
1ff8f0
0ff8f0
07bcf0
003cf0
003cf0
001cf0
001ef0
001ff0
000fe0
0007c0
ENDCHAR
STARTCHAR copyright
ENCODING 169
SWIDTH 403 0
DWIDTH 28 0
BBX 26 24 1 0
BITMAP
00ff0000
03ffc000
0fffe000
1f83f000
1e00f000
1c007800
08007800
00007800
1e007800
7f007800
7f807800
e3807800
e3807800
e380fc00
ff83ff00
7f8fff80
3fbf7f80
07fc7980
07f879c0
07f079c0
07e079c0
07c07f80
07807f80
07803f00
ENDCHAR
STARTCHAR ordfeminine
ENCODING 170
SWIDTH 360 0
DWIDTH 25 0
BBX 23 26 2 0
BITMAP
000008
000018
0fc01e
3ff03e
7ff87c
fff9f8
ffbff0
e39fc0
e39fe0
e79df0
ffbcf0
7f38f0
3e78f0
00f0f0
00f0f0
00f0f0
00f0f0
00f0f0
00f0f0
00f0f0
00f0f0
00f0f0
00f1f0
07fff0
07fff0
07ffc0
ENDCHAR
STARTCHAR guillemotleft
ENCODING 171
SWIDTH 388 0
DWIDTH 27 0
BBX 27 26 0 0
BITMAP
00000080
00000180
071e01c0
1fff03c0
3fff8780
78e79f00
7003fe00
7f83fc00
7fc3fe00
f9c39f00
71c78f00
70cf0f00
79cf0f00
3fdf0f00
3f9e0f00
0e1e0f00
001e0f00
001e0f00
001e0f00
001e0f00
001e0f00
001e0f00
001e1f00
00ffff00
00fffe00
00fffc00
ENDCHAR
STARTCHAR notsign
ENCODING 172
SWIDTH 475 0
DWIDTH 33 0
BBX 28 24 2 0
BITMAP
03fc00f0
0fff00f0
1fff80f0
7c07c0f0
f803e0f0
fe01e0f0
7f81e0f0
0f81e0f0
1f81e0f0
3e01e0f0
3c01e0f0
3c01e0f0
3c01e0f0
3c01e0f0
3c01e0f0
3c03e0f0
3f87f8f0
3fcffef0
38ccfff0
38ece7f0
38ece3f0
39cce3f0
1fcfe1f0
0f87c0f0
ENDCHAR
STARTCHAR hyphen
ENCODING 173
SWIDTH 475 0
DWIDTH 33 0
BBX 28 35 2 -11
BITMAP
03fc00f0
0fff00f0
1fff80f0
7c07c0f0
f803e0f0
fe01e0f0
ff81e0f0
0f81e0f0
1f81e0f0
3e01e0f0
3c01e0f0
3c01e0f0
3c01e0f0
3c01e0f0
3c01e0f0
3c01e0f0
3f81e0f0
3fc1e0f0
38c1e0f0
38e1e0f0
38e1e1f0
38cffff0
1fcfffe0
0f8fffc0
00000000
0003c0f0
0007e0f0
000ff0f0
000e31f0
000c31e0
000e31e0
000ff7c0
000fffc0
0007ff80
0001fe00
ENDCHAR
STARTCHAR registered
ENCODING 174
SWIDTH 403 0
DWIDTH 28 0
BBX 24 35 1 -11
BITMAP
003fc0
01fff0
03fffc
0fe07e
0f003e
1fe01f
0ff00f
01f80f
03f00f
03c00f
07c00f
07800f
07800f
07800f
07800f
1f800f
7f800f
7f800f
e3800f
e1800f
e3800f
f3800f
7f800f
3f078f
00070f
03f70f
0fff0f
0fff0f
1e1fcf
1c1fff
1c1fff
1e7cff
1ff87f
0ff01f
03c00f
ENDCHAR
STARTCHAR macron
ENCODING 175
SWIDTH 403 0
DWIDTH 28 0
BBX 24 35 1 -11
BITMAP
003fc0
01fff0
03fffc
0fe07e
0f003e
1fe01f
0ff00f
01f80f
03f00f
03c00f
07c00f
07800f
07800f
07800f
07800f
1f800f
7f800f
7f800f
e3800f
e3800f
e3800f
e3800f
7f800f
3f1c0f
001c0f
001c0f
031c0f
0ff80f
1ff8cf
1cf9ef
387fff
1cffff
1fef7f
1fe63f
0fc41f
ENDCHAR
STARTCHAR degree
ENCODING 176
SWIDTH 302 0
DWIDTH 21 0
BBX 21 37 -1 -13
BITMAP
01fc00
07fff8
0ffff8
1f07f8
1fc0f0
3ffc00
0fff00
007f80
0007c0
03e3c0
0ff3c0
0ff3c0
1e7bc0
1c3bc0
1e3fc0
0fffc0
0fffc0
07efc0
000fc0
0007c0
0007c0
0007c0
0003c0
0003c0
000000
000700
01cfc0
01ddc0
01dce0
01dce0
3d9de0
7f8fe0
e787e0
e399c0
e7ffc0
7eff80
3c4600
ENDCHAR
STARTCHAR plusminus
ENCODING 177
SWIDTH 460 0
DWIDTH 32 0
BBX 29 24 0 0
BITMAP
0f1c03c0
1fff07f0
3fff8ff0
78e78ff8
70039e78
7f879e78
ffcfbc78
f9df3c78
f1de3878
71de7878
79de7878
7fdef078
3f9ef078
0e1fe078
001fe078
001fc078
001fc078
001fc078
001f8078
001f8078
001f0078
001f0078
001e0078
001e0078
ENDCHAR
STARTCHAR twosuperior
ENCODING 178
SWIDTH 489 0
DWIDTH 34 0
BBX 30 24 1 0
BITMAP
0383003c
07efc03c
0fffe03c
1efdf03c
3c10f03c
7800783c
70f8783c
71fc783c
f3fe783c
f38e783c
738e783c
738e783c
7bfe783c
79fe783c
38fc783c
3c78f83c
1c79fe3c
1ef3ffbc
0fe33ffc
0fe339fc
0fc338fc
0f8338fc
0f83f87c
0f01f03c
ENDCHAR
STARTCHAR threesuperior
ENCODING 179
SWIDTH 489 0
DWIDTH 34 0
BBX 32 24 2 0
BITMAP
03fc00f0
0fff00f0
1fff80f0
7c07c0f0
f803e0f0
fe01e0f0
7f81e0f0
0f81e0f0
1f81e0f0
3e01e0f0
3c01e0f0
3c01e0f0
3c01e0f0
3c01e1f8
3c01e7fc
3c01effe
3f81feff
3fc1fcf7
38c1f8f7
38e1f0f7
38e1f0f7
39c1e0ff
1fc1e0fe
0f81e07c
ENDCHAR
STARTCHAR acute
ENCODING 180
SWIDTH 360 0
DWIDTH 25 0
BBX 21 24 1 0
BITMAP
01fe00
07ff80
1fffe0
3f07e0
7e01f0
7800f8
f8f878
f1fc78
f3fe78
f38e78
f38e78
f38e78
7bfe78
79fe78
7cfc78
3c7878
3c7878
1ef078
1fe078
1fe078
0fc078
0f8078
0f8078
0f0078
ENDCHAR
STARTCHAR mu
ENCODING 181
SWIDTH 360 0
DWIDTH 25 0
BBX 21 24 1 0
BITMAP
038300
07efc0
0fffe0
1efdf0
3c10f0
780078
70f878
71fc78
f3fe78
f38e78
738e78
738e78
7bfe78
79fe78
38fc78
3c7878
1c7878
1ef078
0fe078
0fe078
0fc078
0f8078
0f8078
0f0078
ENDCHAR
STARTCHAR paragraph
ENCODING 182
SWIDTH 374 0
DWIDTH 26 0
BBX 20 24 2 0
BITMAP
01fe00
0fff80
1fffc0
7e07e0
f801e0
fe00f0
ff80f0
0f80f0
1f80f0
3e00f0
3c00f0
3c00f0
3c00f0
3c00f0
3c00f0
3f80f0
3fc0f0
3fe0f0
38e0f0
3860f0
38e0f0
3ce0f0
1fc0f0
0f80f0
ENDCHAR
STARTCHAR periodcentered
ENCODING 183
SWIDTH 403 0
DWIDTH 28 0
BBX 24 24 1 0
BITMAP
1e0078
7f81fe
7f81fe
f1c3ff
e1c3cf
e1c78f
7fc78f
7fc70f
3fcf0f
03cf0f
03de0f
03de0f
03dc0f
03fc0f
03fc0f
03f80f
03f80f
03f00f
03f00f
03f00f
03e00f
03e00f
03c00f
03c00f
ENDCHAR
STARTCHAR cedilla
ENCODING 184
SWIDTH 316 0
DWIDTH 22 0
BBX 20 24 1 0
BITMAP
03f000
0fff60
3ffff0
7c0ff0
7800c0
fff000
fffe00
ffff00
001f80
0f07c0
0f07c0
0f03c0
0f03c0
0f03c0
0f03c0
0f03c0
0f03c0
0f03c0
0f03c0
0f03c0
0f07c0
7fffc0
7fff80
7fff00
ENDCHAR
STARTCHAR onesuperior
ENCODING 185
SWIDTH 388 0
DWIDTH 27 0
BBX 26 24 1 0
BITMAP
3e007800
7f007800
7f807800
e3807800
e3807800
e3807800
7f807800
7f807800
3f807800
07807800
07807800
07807800
07807800
0780fc00
0783ff00
078fff80
079f7f80
07fc7980
07f879c0
07f079c0
07e079c0
07c07f80
07c07f80
07803f00
ENDCHAR
STARTCHAR masculine
ENCODING 186
SWIDTH 374 0
DWIDTH 26 0
BBX 22 24 1 0
BITMAP
3c003c
7f003c
ff003c
e3803c
c3803c
e3803c
ff803c
ff803c
7f803c
07803c
07803c
07803c
07803c
07803c
07803c
07803c
07803c
07803c
07803c
07803c
07807c
3ffffc
3ffff8
3fffe0
ENDCHAR
STARTCHAR guillemotright
ENCODING 187
SWIDTH 374 0
DWIDTH 26 0
BBX 22 33 1 0
BITMAP
00003c
00003c
00003c
00003c
00003c
00003c
00003c
00003c
00003c
3c003c
7f003c
ff003c
e3803c
c3803c
e3803c
ff803c
ff803c
7f803c
07803c
07803c
07803c
07803c
07803c
07803c
07803c
07803c
07803c
07803c
07803c
07807c
3ffffc
3ffff8
3fffe0
ENDCHAR
STARTCHAR onequarter
ENCODING 188
SWIDTH 374 0
DWIDTH 26 0
BBX 20 24 3 0
BITMAP
1e00f0
7f80f0
7f80f0
e3c0f0
e1c0f0
e1c0f0
ff80f0
ff80f0
ff00f0
f000f0
f020f0
f060f0
f0f0f0
f1f8f0
f3fcf0
f79ef0
ff1ff0
fe0ff0
fc07f0
fc03f0
f801f0
f001f0
f000f0
f000f0
ENDCHAR
STARTCHAR onehalf
ENCODING 189
SWIDTH 374 0
DWIDTH 26 0
BBX 20 33 3 0
BITMAP
0000f0
0000f0
0000f0
0000f0
0000f0
0000f0
0000f0
0000f0
0000f0
1e00f0
7f80f0
7f80f0
e3c0f0
e1c0f0
e1c0f0
ff80f0
ff80f0
ff00f0
f000f0
f020f0
f060f0
f0f0f0
f1f8f0
f3fcf0
f79ef0
ff1ff0
fe0ff0
fc07f0
fc03f0
f801f0
f001f0
f000f0
f000f0
ENDCHAR
STARTCHAR threequarters
ENCODING 190
SWIDTH 417 0
DWIDTH 29 0
BBX 26 24 0 0
BITMAP
1e0003c0
7f8083c0
7f8183c0
71c183c0
e1c3c3c0
f1c3c3c0
7fc7e3c0
7fc7e3c0
3fcff3c0
03cff3c0
03de7bc0
03de7bc0
03fc3fc0
03fc3fc0
03f81fc0
03f81fc0
03f01fc0
03f00fc0
03e00fc0
03e007c0
03c007c0
03c003c0
03c003c0
03c003c0
ENDCHAR
STARTCHAR questiondown
ENCODING 191
SWIDTH 417 0
DWIDTH 29 0
BBX 26 33 0 0
BITMAP
000003c0
000003c0
000003c0
000003c0
000003c0
000003c0
000003c0
000003c0
000003c0
1e0003c0
7f8083c0
7f8183c0
71c183c0
e1c3c3c0
f1c3c3c0
7fc7e3c0
7fc7e3c0
3fcff3c0
03cff3c0
03de7bc0
03de7bc0
03fc3fc0
03fc3fc0
03f81fc0
03f81fc0
03f01fc0
03f00fc0
03e00fc0
03e007c0
03c007c0
03c003c0
03c003c0
03c003c0
ENDCHAR
STARTCHAR Agrave
ENCODING 192
SWIDTH 403 0
DWIDTH 28 0
BBX 23 24 1 0
BITMAP
007fc0
01fff0
03fff8
0fc07c
1f003c
1fe01e
0ff01e
01f01e
03f01e
03c01e
07801e
07801e
07801e
07801e
07801e
1f801e
7f801e
7f801e
e3801e
e3801e
e3801e
e3801e
7f001e
3e001e
ENDCHAR
STARTCHAR Aacute
ENCODING 193
SWIDTH 388 0
DWIDTH 27 0
BBX 21 24 2 0
BITMAP
3e0078
7f0078
ff8078
e38078
e38078
e38078
f78078
7f8078
3f8078
078078
078078
078078
078078
1fe078
3ff878
7ffe78
f7ff78
e78ff8
e787f8
e781f8
e780f8
ff80f8
7f8078
3f0078
ENDCHAR
STARTCHAR Acircumflex
ENCODING 194
SWIDTH 360 0
DWIDTH 25 0
BBX 18 24 3 0
BITMAP
0f03c0
3fc3c0
7fc3c0
78e3c0
f8e3c0
f8e3c0
ffc3c0
ffc3c0
ff03c0
f003c0
7c03c0
3f83c0
1f83c0
3f83c0
7e03c0
7803c0
f803c0
f003c0
f003c0
f003c0
f007c0
ffffc0
ffff80
ffff00
ENDCHAR
STARTCHAR Atilde
ENCODING 195
SWIDTH 316 0
DWIDTH 22 0
BBX 20 24 1 0
BITMAP
07f800
1fffe0
3ffff0
780ff0
f80000
fff000
fffc00
03ff00
001f00
000780
000780
000780
000780
000780
000780
003f80
007f80
00ff80
00e380
00e380
00e380
00ff80
007f00
003e00
ENDCHAR
STARTCHAR Adiaeresis
ENCODING 196
SWIDTH 374 0
DWIDTH 26 0
BBX 20 36 2 -12
BITMAP
01fe00
0fff80
1fffc0
7e07e0
f801e0
fe00f0
ff80f0
0f80f0
1f80f0
3e00f0
3c00f0
3c00f0
3c00f0
3c00f0
3c00f0
3f80f0
3fc0f0
3fe0f0
38e0f0
38e0f0
38e0f0
3ce0f0
1fc0f0
0f80f0
0000f0
0000f0
0000f0
0000f0
0000f0
0000f0
0000f0
0000f0
0000f0
0000f0
0000f0
0000f0
ENDCHAR
STARTCHAR Aring
ENCODING 197
SWIDTH 360 0
DWIDTH 25 0
BBX 19 24 2 0
BITMAP
03f800
0ffe00
3fff80
7c0fc0
f803c0
6001e0
2001e0
07c1e0
0ff1e0
1ff9e0
3e7de0
383de0
381fe0
780fe0
780fe0
7f07e0
7fc7e0
7fc7e0
78e3e0
78e3e0
38e3e0
3de1e0
3fc1e0
1f81e0
ENDCHAR
STARTCHAR AE
ENCODING 198
SWIDTH 403 0
DWIDTH 28 0
BBX 23 36 1 -12
BITMAP
007fc0
01fff0
03fff8
0fc07c
1f003c
1fe01e
0ff01e
01f01e
03f01e
03c01e
07801e
07801e
07801e
07801e
07801e
1f801e
7f801e
7f801e
e3801e
e3801e
e3801e
e3801e
7f001e
3e001e
00001e
00001e
00001e
00001e
00001e
00001e
00001e
00001e
00001e
00001e
00001e
00001e
ENDCHAR
STARTCHAR Ccedilla
ENCODING 199
SWIDTH 316 0
DWIDTH 22 0
BBX 19 24 0 0
BITMAP
03f800
1fff00
3fff80
7e0fc0
f807c0
f003e0
2001e0
0001e0
0001e0
0001e0
0001e0
0001e0
0001e0
0001e0
0001e0
000fe0
001fe0
003fe0
0038e0
0070e0
0078e0
0039e0
003fc0
001f80
ENDCHAR
STARTCHAR Egrave
ENCODING 200
SWIDTH 360 0
DWIDTH 25 0
BBX 22 25 2 0
BITMAP
000018
03fc3c
0fff3c
3ffff8
7e07f8
7c03f0
f003f0
f1fff0
e3fff0
e3fef0
e71cf0
f71cf0
f71cf0
7ffcf0
7ff8f0
3ff0f0
3f00f0
1f00f0
1f00f0
0f00f0
0f00f0
0f00f0
0f00f0
0f00f0
0f00f0
ENDCHAR
STARTCHAR Eacute
ENCODING 201
SWIDTH 388 0
DWIDTH 27 0
BBX 28 24 1 0
BITMAP
1e003c00
7f803c00
7f803c00
e1c03c00
e1c03c00
e1c03c00
ffc03c00
7fc63cf0
3fdfbcf0
03dfbce0
03f9fde0
03f9fde0
03dfbfc0
03dfff80
03cffe00
03c3fc00
03c03c00
03c03c00
03c03c00
03c03c00
03c03c00
3ffffc00
3ffff800
3ffff000
ENDCHAR
STARTCHAR Ecircumflex
ENCODING 202
SWIDTH 360 0
DWIDTH 25 0
BBX 20 27 2 0
BITMAP
000040
000060
0000f0
03f9e0
1fffc0
3fffc0
7c0f80
f007c0
6007c0
200fe0
078fe0
0ffde0
1ff9e0
3cf9e0
383de0
781de0
781fe0
780fe0
7e0fe0
7f87e0
7fc7e0
78c3e0
70c3e0
70c3e0
39c3e0
3fc1e0
1f81e0
ENDCHAR
STARTCHAR Ediaeresis
ENCODING 203
SWIDTH 388 0
DWIDTH 27 0
BBX 24 24 0 0
BITMAP
1e0078
7f81fc
7fc1fe
f1c3ce
e1c38f
e1c38e
7fc1fe
7fc1fc
3fc3f8
03c7fc
03cf9e
03df1e
03fe1e
03fc1e
03f81e
03f01e
03f01e
03e01e
03e01e
03c01e
03c01e
03c01e
03c01e
03c01e
ENDCHAR
STARTCHAR Igrave
ENCODING 204
SWIDTH 432 0
DWIDTH 30 0
BBX 30 27 1 0
BITMAP
00003f10
00007f98
00007fbc
3c0073f8
7f0073f8
ff007ff0
e3813fe0
c3831f80
e3830780
ff878780
ff878780
7f8fc780
079fe780
079fe780
07bcf780
07bcf780
07f87f80
07f87f80
07f03f80
07f03f80
07e01f80
07e01f80
07c00f80
07c00780
07800780
07800780
07800780
ENDCHAR
STARTCHAR Iacute
ENCODING 205
SWIDTH 360 0
DWIDTH 25 0
BBX 19 24 2 0
BITMAP
03f800
1fff00
3fff80
7e0fc0
f803c0
2003e0
0001e0
0201e0
1f81e0
3fc1e0
39e1e0
78e1e0
78e1e0
79e1e0
7fc1e0
7f81e0
7f01e0
7801e0
7801e0
7801e0
7c01e0
3fffe0
3fffc0
1fff80
ENDCHAR
STARTCHAR Icircumflex
ENCODING 206
SWIDTH 360 0
DWIDTH 25 0
BBX 22 25 3 0
BITMAP
0ff020
3ffe70
7ffff8
fc3ff8
e00ff0
e007e0
f01fc0
ffffc0
7fffc0
0ffbc0
1e03c0
3f03c0
7f83c0
7383c0
f183c0
f383c0
ff83c0
ff83c0
ff03c0
f003c0
f003c0
f803c0
ffffc0
7fff80
3fff00
ENDCHAR
STARTCHAR Idiaeresis
ENCODING 207
SWIDTH 345 0
DWIDTH 24 0
BBX 18 25 2 -1
BITMAP
1f03c0
3f83c0
7fc3c0
79c3c0
f0e3c0
f0c7c0
ffc7c0
ffc7c0
7f8fc0
781fc0
3fffc0
3fffc0
1ffbc0
07e3c0
0003c0
0003c0
0003c0
0003c0
0003c0
0003c0
000f80
003f80
003f00
003c00
003000
ENDCHAR
STARTCHAR ETH
ENCODING 208
SWIDTH 273 0
DWIDTH 19 0
BBX 16 24 1 0
BITMAP
3e0f
7f0f
ff8f
f38f
e39f
e3be
f7fe
7ffc
3ff0
0fc0
0000
0000
0000
0000
3e0f
7f0f
ff8f
f38f
e39e
e3be
f7fc
7ffc
3ff8
0fc0
ENDCHAR
STARTCHAR Ntilde
ENCODING 209
SWIDTH 0 0
DWIDTH 0 0
BBX 20 10 -15 28
BITMAP
3c0000
7f00e0
ff00f0
e381e0
e383e0
e387c0
ff1f80
7fff00
1ffe00
07f000
ENDCHAR
STARTCHAR Ograve
ENCODING 210
SWIDTH 288 0
DWIDTH 20 0
BBX 17 24 0 0
BITMAP
03f800
0ffe00
1fff00
3c1f00
780f80
780780
300780
000780
000780
000780
000780
000780
000780
000780
000780
000780
000780
000780
000780
000780
000780
000780
000780
000780
ENDCHAR
STARTCHAR Oacute
ENCODING 211
SWIDTH 288 0
DWIDTH 20 0
BBX 29 37 -12 0
BITMAP
3e000000
7f000000
7f800000
e3800000
e1800000
e3800000
7f800000
7f000000
1e000000
00000000
00000000
00000000
00000000
00003f80
0000ffe0
0001fff0
0003c1f0
000780f8
00078078
00030078
00000078
00000078
00000078
00000078
00000078
00000078
00000078
00000078
00000078
00000078
00000078
00000078
00000078
00000078
00000078
00000078
00000078
ENDCHAR
STARTCHAR Ocircumflex
ENCODING 212
SWIDTH 0 0
DWIDTH 0 0
BBX 19 10 -22 28
BITMAP
006000
07fc00
0fff00
3f0f80
3c0780
7fe3c0
7fffc0
ffffc0
803fe0
0001e0
ENDCHAR
STARTCHAR Otilde
ENCODING 213
SWIDTH 43 0
DWIDTH 3 0
BBX 19 12 -20 28
BITMAP
0003c0
0003c0
01e3c0
07ffc0
1fffc0
3e1fc0
7807c0
7fe3c0
ffffc0
ffffc0
001fc0
0001e0
ENDCHAR
STARTCHAR Odiaeresis
ENCODING 214
SWIDTH 0 0
DWIDTH 0 0
BBX 19 13 -22 28
BITMAP
000300
000fc0
000fe0
01fce0
07fce0
1fffe0
3e0fc0
3807c0
7fe380
7fffc0
ffffc0
001fe0
0000e0
ENDCHAR
STARTCHAR multiply
ENCODING 215
SWIDTH 43 0
DWIDTH 3 0
BBX 19 12 -20 28
BITMAP
003bc0
003bc0
01fbc0
07ffc0
1fffc0
3e1fc0
7807c0
7fe7c0
ffffc0
ffffc0
001fc0
0001e0
ENDCHAR
STARTCHAR Ooblique
ENCODING 216
SWIDTH 0 0
DWIDTH 0 0
BBX 10 14 -13 -17
BITMAP
3f00
7f80
7fc0
f1c0
e1c0
f1c0
7fc0
7fc0
1fc0
03c0
03c0
03c0
03c0
03c0
ENDCHAR
STARTCHAR Ugrave
ENCODING 217
SWIDTH 0 0
DWIDTH 0 0
BBX 16 15 -19 -18
BITMAP
1f0f
7f8f
7f8f
71cf
e1cf
71cf
7fcf
7fcf
1fcf
03cf
03cf
03ff
03ff
01fe
0078
ENDCHAR
STARTCHAR Uacute
ENCODING 218
SWIDTH 0 0
DWIDTH 0 0
BBX 4 5 -8 -9
BITMAP
60
f0
f0
f0
60
ENDCHAR
STARTCHAR Ucircumflex
ENCODING 219
SWIDTH 0 0
DWIDTH 0 0
BBX 4 5 -8 -18
BITMAP
60
f0
f0
f0
40
ENDCHAR
STARTCHAR Udiaeresis
ENCODING 220
SWIDTH 0 0
DWIDTH 0 0
BBX 1 1 0 0
BITMAP
00
ENDCHAR
STARTCHAR Yacute
ENCODING 221
SWIDTH 0 0
DWIDTH 0 0
BBX 1 1 0 0
BITMAP
00
ENDCHAR
STARTCHAR THORN
ENCODING 222
SWIDTH 0 0
DWIDTH 0 0
BBX 1 1 0 0
BITMAP
00
ENDCHAR
STARTCHAR ssharp
ENCODING 223
SWIDTH 403 0
DWIDTH 28 0
BBX 23 34 3 -2
BITMAP
003800
003800
003800
ffff00
ffffe0
fffff0
fffff8
fffffc
fc3ffc
fc38fc
fc387c
fc387c
fc387c
fc38fc
fc3ff8
fffff8
fffff0
fffff0
fffff8
fffffc
fc3ffe
fc387e
fc387e
fc387e
fc387e
fc387e
fc3ffe
fffffc
fffffc
fffff8
fffff0
ffff80
003800
003800
ENDCHAR
STARTCHAR agrave
ENCODING 224
SWIDTH 187 0
DWIDTH 13 0
BBX 10 24 3 0
BITMAP
f000
f000
f000
f000
f000
f000
f000
f000
f000
f000
f000
f000
f000
f000
f000
fe00
ff80
ff80
e380
e1c0
e1c0
ff80
7f80
3f00
ENDCHAR
STARTCHAR aacute
ENCODING 225
SWIDTH 345 0
DWIDTH 24 0
BBX 21 24 3 0
BITMAP
f01e00
f01e00
f01e00
f01e00
f01e00
f01e00
f01e00
f01e00
f01e00
f01e00
f01e00
f01e00
f01e00
f01e00
f01e00
fe1fc0
ff9ff0
ff9ff0
e39c78
e1dc38
e1dc38
ff9ff0
7f8ff0
3f07e0
ENDCHAR
STARTCHAR acircumflex
ENCODING 226
SWIDTH 230 0
DWIDTH 16 0
BBX 18 43 -2 0
BITMAP
03c000
0ff080
1fffc0
3fffc0
7f1fc0
3f8200
07e000
01e000
00f000
00f000
00f000
00f000
00f000
00f000
00f000
00f000
00f000
00f000
00f000
00f000
00f000
00f000
00f000
00f000
00f000
00f000
00f000
00f000
00f000
00f000
00f000
00f000
00f000
00f000
00fe00
00ff00
00ff80
00e380
00e380
00e380
00ff80
007f00
003e00
ENDCHAR
STARTCHAR atilde
ENCODING 227
SWIDTH 230 0
DWIDTH 16 0
BBX 17 43 -2 0
BITMAP
0f8000
3fc000
7fe000
78f000
fcf000
fef000
e6f000
e7f000
eef000
7ef000
3cf000
00f000
00f000
00f000
00f000
00f000
00f000
00f000
00f000
00f000
00f000
00f000
00f000
00f000
00f000
00f000
00f000
00f000
00f000
00f000
00f000
00f000
00f000
00f000
00fe00
00ff00
00ff80
00e380
00e380
00e380
00ff80
007f80
003f00
ENDCHAR
STARTCHAR adiaeresis
ENCODING 228
SWIDTH 273 0
DWIDTH 19 0
BBX 20 43 -2 0
BITMAP
207000
707c00
78fc00
38fc00
38fc00
3dfc00
3dfc00
1dfc00
1ffc00
1fbc00
0fbc00
0fbc00
0fbc00
073c00
063c00
003c00
003c00
003c00
003c00
003c00
003c00
003c00
003c00
003c00
003c00
003c00
003c00
003c00
003c00
003c00
003c00
003c00
003c00
003c00
003f80
003fe0
003fe0
0038f0
003870
0038f0
003fe0
001fe0
000fc0
ENDCHAR
STARTCHAR aring
ENCODING 229
SWIDTH 288 0
DWIDTH 20 0
BBX 17 36 0 -12
BITMAP
03f800
0ffe00
1fff00
3c1f00
780f80
780780
300780
000780
000780
000780
000780
000780
000780
000780
000780
000780
000780
000780
000780
000780
000780
000780
000780
000780
000780
000780
000780
000780
000780
000780
000780
000780
000780
000780
000780
000780
ENDCHAR
STARTCHAR ae
ENCODING 230
SWIDTH 388 0
DWIDTH 27 0
BBX 17 33 7 -9
BITMAP
0e1800
3f7e00
3fff00
7fff00
f1cf80
f00780
ef0780
ff8780
ffc780
f9c780
f9c780
7fc780
7f8780
1f0780
000780
000780
000780
000780
000780
000780
000780
000780
000780
000780
000780
000780
000780
000f80
001f00
00ff00
00fe00
00f800
006000
ENDCHAR
STARTCHAR ccedilla
ENCODING 231
SWIDTH 0 0
DWIDTH 0 0
BBX 18 14 -20 28
BITMAP
0001c0
0003c0
0003c0
1fff80
3fff80
7ffe00
f80000
f01f00
ffff80
fffb80
fff180
78fb80
383f80
381f00
ENDCHAR
STARTCHAR egrave
ENCODING 232
SWIDTH 0 0
DWIDTH 0 0
BBX 4 8 -7 43
BITMAP
f0
f0
f0
f0
f0
f0
f0
f0
ENDCHAR
STARTCHAR eacute
ENCODING 233
SWIDTH 0 0
DWIDTH 0 0
BBX 14 10 -13 41
BITMAP
381c
7c1c
ee1c
c61c
ee38
7e38
7ef0
1ff0
3fc0
3f00
ENDCHAR
STARTCHAR ecircumflex
ENCODING 234
SWIDTH 0 0
DWIDTH 0 0
BBX 17 9 -18 41
BITMAP
3de380
7ff380
e37b80
f83b80
fc3b00
ee3700
e63e00
7e7c00
3c6000
ENDCHAR
STARTCHAR ediaeresis
ENCODING 235
SWIDTH 0 0
DWIDTH 0 0
BBX 10 9 -10 42
BITMAP
1e00
1e00
1e00
ffc0
ffc0
ffc0
1e00
1e00
1e00
ENDCHAR
STARTCHAR igrave
ENCODING 236
SWIDTH 0 0
DWIDTH 0 0
BBX 13 12 -15 39
BITMAP
0038
0078
0ff0
3ff0
7f80
fe00
fe00
e700
e700
ff00
7e00
1c00
ENDCHAR
STARTCHAR iacute
ENCODING 237
SWIDTH 0 0
DWIDTH 0 0
BBX 9 9 -13 28
BITMAP
3e00
7f00
ff80
e380
e380
e380
ff80
7f00
3e00
ENDCHAR
STARTCHAR icircumflex
ENCODING 238
SWIDTH 0 0
DWIDTH 0 0
BBX 9 9 -13 35
BITMAP
3e00
7f00
7780
e380
e180
e380
7f80
7f00
3e00
ENDCHAR
STARTCHAR idiaeresis
ENCODING 239
SWIDTH 345 0
DWIDTH 24 0
BBX 24 24 0 0
BITMAP
00ff00
03ffc0
07ffe0
0f81f0
1e0078
3c003c
787c1c
70ff0e
73ff8e
e3ffc7
e3ffc7
e7ffc7
e7ffc7
e7ffc7
e3ffc7
e3ffc7
61ff8e
70ff0e
387c1c
3c003c
1f00f8
0fffe0
03ffc0
00ff00
ENDCHAR
STARTCHAR eth
ENCODING 240
SWIDTH 345 0
DWIDTH 24 0
BBX 20 17 2 0
BITMAP
03fc00
0fff00
1fff80
3f0fc0
7c03e0
7801e0
f801f0
f000f0
f000f0
f000f0
f801f0
7801e0
7c03e0
3e07c0
1fffc0
0fff00
07fc00
ENDCHAR
STARTCHAR ntilde
ENCODING 241
SWIDTH 360 0
DWIDTH 25 0
BBX 21 19 2 -2
BITMAP
01fc00
07ff00
1fffc0
3f07e0
7c01e0
f8f8f0
f9fcf0
f3fe78
f39e78
f38e78
fbde78
7bfe78
7ffcf0
3ffcf0
1ff9f0
07f3e0
0007c0
000380
000100
ENDCHAR
STARTCHAR ograve
ENCODING 242
SWIDTH 432 0
DWIDTH 30 0
BBX 25 25 2 0
BITMAP
60000000
f0000000
f8000000
78000000
78000000
78000000
78000000
783c3e00
78ffff00
79ffff00
79f7ff80
7bf9c780
7bfd8780
7bfe0780
7bce0780
7bc60780
7bce0780
79fe0780
79fc0780
7c780780
7c000780
3f000f80
3fffff00
1fffff00
07fffc00
ENDCHAR
STARTCHAR oacute
ENCODING 243
SWIDTH 417 0
DWIDTH 29 0
BBX 23 17 3 0
BITMAP
0f83e0
1fe7f8
3ffff8
787e3c
783e1c
f03c1e
f03c1e
f03c1e
ff3c1e
ffbc1e
ffbc1e
f3fc1e
f1fc1e
73fc1e
7fbc1c
3fbc3c
1f3c3c
ENDCHAR
STARTCHAR ocircumflex
ENCODING 244
SWIDTH 417 0
DWIDTH 29 0
BBX 27 28 2 -1
BITMAP
000001e0
000001e0
000001e0
000001e0
000001e0
000003c0
000003c0
000007c0
000007c0
00fc3f80
07ffff00
1ffffe00
3ffffc00
7f000000
7c3e0000
f87f0000
f0ff0000
f0e78000
f0e38000
f0e78000
f8ff0000
78fe0000
7e7fe000
3ffffe00
1fffff00
0fffff00
03fc0600
00000200
ENDCHAR
STARTCHAR otilde
ENCODING 245
SWIDTH 432 0
DWIDTH 30 0
BBX 27 28 2 -1
BITMAP
000001e0
000001e0
000001e0
001c01e0
007f01e0
00ff03c0
00ff83c0
00e383c0
00e387c0
00ff9f80
07ffff00
0ffffe00
3ffff800
7e000000
7c3e0000
f87f0000
f0ff0000
f0e78000
f0e38000
f0e78000
f8ff0000
78fe0000
7e7fe000
3ffffe00
1fffff00
0fffff00
03fc0e00
00000200
ENDCHAR
STARTCHAR odiaeresis
ENCODING 246
SWIDTH 316 0
DWIDTH 22 0
BBX 21 27 0 0
BITMAP
100000
780000
780000
780000
3c0000
3c0000
1c0000
1e0000
1e0000
0eff80
0fffc0
0fffe0
0fcff0
0e01f0
0000f8
0000f8
03c078
07f078
0ff878
0ff878
0e38f8
1e39f0
0ffbf0
0fffe0
07ffc0
03ff80
01fe00
ENDCHAR
STARTCHAR division
ENCODING 247
SWIDTH 432 0
DWIDTH 30 0
BBX 27 27 2 -1
BITMAP
00000080
000001e0
000001e0
000003c0
000003c0
000003c0
000003c0
000003c0
000003c0
078783c0
1fdfe3c0
3fffe3c0
7ffff3c0
f8f8f3c0
f0787bc0
f0707bc0
f0707bc0
f7007bc0
ffc07bc0
ffc077c0
ffe0f780
f8e0ef80
78e1ff00
7fe1fe00
3fc3fc00
1f81f000
00008000
ENDCHAR
STARTCHAR oslash
ENCODING 248
SWIDTH 403 0
DWIDTH 28 0
BBX 25 27 2 -1
BITMAP
00000f00
00000700
00000780
00000780
00000780
00000780
00000780
00000780
00000780
03fe1f80
0fffff00
1fffff00
3ffffc00
7c000000
7800f000
f001fc00
f003fc00
f3839e00
f7e39e00
f7f39e00
7ffbfe00
7f7dfe00
3f3efe00
3f1ffe00
1f8ffc00
0f87f800
0000c000
ENDCHAR
STARTCHAR ugrave
ENCODING 249
SWIDTH 374 0
DWIDTH 26 0
BBX 23 26 2 0
BITMAP
00003c
00001c
00001c
00001e
00001e
00001e
00000e
00000e
00000e
07e7de
1ffffe
3ffffe
7ffffc
7c1f18
f80f00
f00780
f00780
f1f3c0
f3fbe0
f7f9e0
ff3df0
7f1cf0
7f3cf8
3ff878
1ff87c
07e030
ENDCHAR
STARTCHAR uacute
ENCODING 250
SWIDTH 993 0
DWIDTH 69 0
BBX 69 2 0 10
BITMAP
fffffffffffffffff8
fffffffffffffffff8
ENDCHAR
STARTCHAR ucircumflex
ENCODING 251
SWIDTH 504 0
DWIDTH 35 0
BBX 35 2 0 10
BITMAP
ffffffffe0
ffffffffe0
ENDCHAR
STARTCHAR udiaeresis
ENCODING 252
SWIDTH 0 0
DWIDTH 0 0
BBX 9 15 -13 -28
BITMAP
1c00
7f00
7f00
e780
e380
e380
f780
7f80
3f80
0f80
0780
0780
0780
0780
0780
ENDCHAR
STARTCHAR yacute
ENCODING 253
SWIDTH 0 0
DWIDTH 0 0
BBX 15 15 -19 -28
BITMAP
1c00
3f1e
7f9e
f39e
e39e
e39e
f39e
7f9e
3f9e
0f9e
079e
07de
03fe
03fc
00f8
ENDCHAR
STARTCHAR thorn
ENCODING 254
SWIDTH 417 0
DWIDTH 29 0
BBX 27 28 2 -1
BITMAP
001f8000
007ff000
01c07800
07001c00
0e000600
18000300
31ff8180
3060e080
6060e0c0
60606040
c0606060
c060e060
c061c060
c07f0060
c0670060
c0638060
c063c060
c061c060
4060e040
606070c0
21f87cc0
30000180
18000300
0c000600
06000c00
03c07800
00ffe000
001f8000
ENDCHAR
STARTCHAR ydiaeresis
ENCODING 255
SWIDTH 0 0
DWIDTH 0 0
BBX 1 1 0 0
BITMAP
00
ENDCHAR
ENDFONT
